<svg width="134px" height="100px" id="Layer_1" data-name="Layer 1" xmlns="http://www.w3.org/2000/svg" viewBox="0 0 476.9 365.2">
  <defs>
    <style>
      .cls-1{fill:#231f20}.cls-3{fill:#f15a29}.cls-4{fill:#fbb040}
    </style>
  </defs>
  <path class="cls-1" d="M432.1 183.7c-1.4-6.6-4.6-12-7.3-16l-1.6-2.6a157.4 157.4 0 0 1-11.1-18.3c-2-4-2.2-7.5-.8-11a79 79 0 0 0 3-9c1.2-3 1-5.8-.6-8.1a8.3 8.3 0 0 0-7.2-3.5h-18.9c-9.2 0-14.4 3.9-17.3 12.7l-1.1 3.3H364l1.8-5.2a8.3 8.3 0 0 0-7.9-10.8h-18.4c-4.7 0-13.8 2.3-18 11.2a8.3 8.3 0 0 0-.3.8l-1.3 4.2h-66.2a7.8 7.8 0 0 0-1.5.1l-.8.2-.6.1 15.8-47a8.3 8.3 0 0 0-7.9-10.9h-30.2c-9 .2-20.4 2-27.1 4-14.1 4.5-30 11.4-39.4 36.7v.3l-5.6 16.4h-35a69.8 69.8 0 0 0-10.7.8 22.7 22.7 0 0 0-18-16.5h-.2l-2.3-.2h-.5a10 10 0 0 0-1.1 0 34.9 34.9 0 0 0-13.9 3l-.3.2a20.7 20.7 0 0 0-7 5.1A14.7 14.7 0 0 0 64 137c1.4 5.4 6 9.4 11.9 10.7l-2.3 1.9a97.6 97.6 0 0 0-19.2 23.3c-9.7 16-15 42.4-5.2 65.4A56.3 56.3 0 0 0 90 271.8a61.7 61.7 0 0 0 13.2 1.5c24.8 0 49.8-16 63.4-40.5a101.3 101.3 0 0 0 5.7-12.6l15.4-45.8h3.4L177.3 215a7.2 7.2 0 0 0-.2 1l-15 45.4-.3 1a8.3 8.3 0 0 0 7.8 10.9h229a8.2 8.2 0 0 0 7.8-5.8l3-9 12.8-38.2 2.1-6.5a28.8 28.8 0 0 0 3.5-4.1 33.9 33.9 0 0 0 4.3-26Z"/>
  <path d="m193.8 130-3.2 9.5h20.8l10.4-31a40.2 40.2 0 0 0-11.3 2.9c-3.8 1.4-12 5.6-16.7 18.5Z" fill="none"/>
  <path class="cls-3" d="M228.8 81.1c-8 .2-18.7 1.7-24.8 3.7a47 47 0 0 0-34.1 31.7l-7.4 22h-41A62.2 62.2 0 0 0 104 141c.2-6.3-2.9-17.7-14.2-18.5 5.9 1 13.3 11.6 4.8 22.1A67.9 67.9 0 0 0 79 154.8a89 89 0 0 0-17.6 21.3 66.6 66.6 0 0 0-4.7 58c6.4 14.9 18.8 25 34.9 28.6A52.8 52.8 0 0 0 103 264c22 0 44-14.2 56.3-36.3a95.5 95.5 0 0 0 5-11l4.2-12.4 13.1-39.2h20.8l-17.3 51.5h28.2l45.4-135.5Zm-84.3 115a50 50 0 0 1-6.7 18.1c-7.9 14.3-24 26.7-40.7 23-23.7-5.2-23.3-34.6-14.4-49.3 19.2-31.7 45-26.2 50.6-23 4.6 2.7 15 10.5 11.2 31.2Zm67-57.6h-20.9l3.2-9.6c4.6-12.9 12.9-17 16.7-18.5a39.9 39.9 0 0 1 11.3-2.8Z"/>
  <path class="cls-3" d="M84.3 138.5c5.8-1.5 9.6-6 8.6-10s-6.5-6-12.3-4.5-9.6 6-8.6 10 6.6 6 12.3 4.5ZM352.7 138.5l5.3-16h-18.4s-7.4 0-10.4 6.4l-29.3 87.7h42.8l8.2-24.6h-16.1l9-26.8h16l9-26.7ZM253.8 138.7h-.6a17.6 17.6 0 0 0-8.5 5.1l-1.2 1.3-24 71.5h26.7l17.3-51.5h20.4l-17.2 51.5h26.7l26.1-78Z"/>
  <path class="cls-4" d="M133.3 166c-5.6-3.3-31.4-8.7-50.6 23-8.9 14.7-9.3 44 14.4 49.3 16.8 3.7 32.8-8.7 40.7-23a50 50 0 0 0 6.7-18.1c3.8-20.8-6.6-28.6-11.2-31.2Z"/>
  <path class="cls-1" d="M112 179.6c-2-1.2-10.8-3-17.7 7.2a4 4 0 0 1 1-.1 4.3 4.3 0 1 1-3.6 6.7c-.8 5.3.9 11.2 7.1 12.6s12-3.2 15-8.4a18.5 18.5 0 0 0 2.4-6.6c1.4-7.6-2.5-10.4-4.1-11.4Z"/>
  <path d="M95.2 195.3a4.3 4.3 0 0 0 0-8.6 4 4 0 0 0-.9 0l-.7 1.3a14.9 14.9 0 0 0-2 5.4 4.3 4.3 0 0 0 3.6 1.9Z" fill="#fff"/>
  <path class="cls-4" d="m188 249.5-5.3 15.4h-13l14.3-41.3h13l-5.2 14.8h27.6l5.1-14.8h13l-14.3 41.3h-13l5.4-15.4ZM238.3 234a17.2 17.2 0 0 1 2-4 12.3 12.3 0 0 1 3.2-3.2 15.7 15.7 0 0 1 3.8-2 19.5 19.5 0 0 1 4.6-1.1 62.2 62.2 0 0 1 6.3-.4h22a53.5 53.5 0 0 1 6 .4 11.7 11.7 0 0 1 3.9 1 6 6 0 0 1 2.3 2.1 5 5 0 0 1 1 3.1 13.2 13.2 0 0 1-.8 4.2l-2 6-5 14.1a18 18 0 0 1-2 4.3 12 12 0 0 1-3.2 3.1 16 16 0 0 1-3.8 2 21.1 21.1 0 0 1-4.6 1q-2.7.4-6.5.5t-10.9.1l-10.8-.1a60.2 60.2 0 0 1-6-.4 12 12 0 0 1-4-1 7 7 0 0 1-2.3-2 4.9 4.9 0 0 1-1-3.2 13.8 13.8 0 0 1 .8-4.3Zm5.3 18.6c-.3.8-.3 1.4.1 1.8a5 5 0 0 0 2.9.5H270a6.8 6.8 0 0 0 3.3-.7 3 3 0 0 0 1.5-1.6l1.6-4.8 4.2-12c.3-1 .3-1.6-.2-2a5 5 0 0 0-2.8-.4H254a6 6 0 0 0-3.2.6 3.4 3.4 0 0 0-1.5 1.9ZM322.7 264.9H314l-5-30-10.4 30h-12l14.2-41.3H321l3.2 24v.2l19.9-24.2h20.1L350 264.9h-12l10.3-30h-.2ZM403.3 255.2 400 265h-45.5l14.3-41.3h45.4l-3.3 9.5h-32.5l-2.4 7h30.5l-2.9 8.3h-30.5l-2.3 6.8Z"/>
  <path d="M404.9 215.7a54.6 54.6 0 0 1-10 .9h-44.5c-1.6 0-2-.2-1.4-2l7-20.6a2 2 0 0 1 2.4-1.7h27.5a37.4 37.4 0 0 0 10.5-1.3c4-1.2 4.8-2.9 3.3-6.8-2-4.8-5.1-8.9-7.9-13.6l-4 10.6c-.2.7-.3 1.4-1.4 1.4h-26.5l1.4-4.4 15.9-48c1.9-5.8 4.4-7.7 10.5-7.7h18.7c1.8 0 1.8.5 1.3 1.9l-3 8.8a19.8 19.8 0 0 0 1 16.8c3.7 7.6 8.5 14.6 13.2 21.6 2.8 4.3 5.2 8.7 6.2 13.6 2.8 13.5-2.7 27.3-20.3 30.5Z" fill="#f15b2f"/>
</svg>
